HIERARCHY
ROOT Hips
{
	OFFSET 0.000000 0.000000 0.000000
	CHANNELS 6 Xposition Yposition Zposition Zrotation Yrotation Xrotation 
	JOINT LHipJoint
	{
		OFFSET 0.000000 0.000000 0.000000
		CHANNELS 3 Zrotation Yrotation Xrotation
		JOINT LeftUpLeg
		{
			OFFSET 1.363060 -1.794630 0.839290
			CHANNELS 3 Zrotation Yrotation Xrotation
			JOINT LeftLeg
			{
				OFFSET 2.448110 -6.726130 0.000000
				CHANNELS 3 Zrotation Yrotation Xrotation
				JOINT LeftFoot
				{
					OFFSET 2.562200 -7.039590 0.000000
					CHANNELS 3 Zrotation Yrotation Xrotation
					JOINT LeftToeBase
					{
						OFFSET 0.157640 -0.433110 2.322550
						CHANNELS 3 Zrotation Yrotation Xrotation
						End Site
						{
							OFFSET 0.000000 0.000000 0.000000
						}
					}
				}
			}
		}
	}
	JOINT RHipJoint
	{
		OFFSET 0.000000 0.000000 0.000000
		CHANNELS 3 Zrotation Yrotation Xrotation
		JOINT RightUpLeg
		{
			OFFSET -1.305520 -1.794630 0.839290
			CHANNELS 3 Zrotation Yrotation Xrotation
			JOINT RightLeg
			{
				OFFSET -2.542530 -6.985550 0.000000
				CHANNELS 3 Zrotation Yrotation Xrotation
				JOINT RightFoot
				{
					OFFSET -2.568260 -7.056230 0.000000
					CHANNELS 3 Zrotation Yrotation Xrotation
					JOINT RightToeBase
					{
						OFFSET -0.164730 -0.452590 2.363150
						CHANNELS 3 Zrotation Yrotation Xrotation
						End Site
						{
							OFFSET 0.000000 0.000000 0.000000
						}
					}
				}
			}
		}
	}
	JOINT LowerBack
	{
		OFFSET 0.000000 0.000000 0.000000
		CHANNELS 3 Zrotation Yrotation Xrotation
		JOINT Spine
		{
			OFFSET 0.028270 2.035590 -0.193380
			CHANNELS 3 Zrotation Yrotation Xrotation
			JOINT Spine1
			{
				OFFSET 0.056720 2.048850 -0.042750
				CHANNELS 3 Zrotation Yrotation Xrotation
				JOINT Neck
				{
					OFFSET 0.000000 0.000000 0.000000
					CHANNELS 3 Zrotation Yrotation Xrotation
					JOINT Neck1
					{
						OFFSET -0.054170 1.746240 0.172020
						CHANNELS 3 Zrotation Yrotation Xrotation
						JOINT Head
						{
							OFFSET 0.104070 1.761360 -0.123970
							CHANNELS 3 Zrotation Yrotation Xrotation
							End Site
							{
								OFFSET 0.000000 0.000000 0.000000
							}
						}
					}
				}
				JOINT LeftShoulder
				{
					OFFSET 0.000000 0.000000 0.000000
					CHANNELS 3 Zrotation Yrotation Xrotation
					JOINT LeftArm
					{
						OFFSET 3.362410 1.200890 -0.311210
						CHANNELS 3 Zrotation Yrotation Xrotation
						JOINT LeftForeArm
						{
							OFFSET 4.983000 -0.000000 -0.000000
							CHANNELS 3 Zrotation Yrotation Xrotation
							JOINT LeftHand
							{
								OFFSET 3.483560 -0.000000 -0.000000
								CHANNELS 3 Zrotation Yrotation Xrotation
								JOINT LeftFingerBase
								{
									OFFSET 0.000000 0.000000 0.000000
									CHANNELS 3 Zrotation Yrotation Xrotation
									JOINT LeftHandIndex1
									{
										OFFSET 0.715260 -0.000000 -0.000000
										CHANNELS 3 Zrotation Yrotation Xrotation
										End Site
										{
											OFFSET 0.000000 0.000000 0.000000
										}
									}
								}
								JOINT LThumb
								{
									OFFSET 0.000000 0.000000 0.000000
									CHANNELS 3 Zrotation Yrotation Xrotation
									End Site
									{
										OFFSET 0.000000 0.000000 0.000000
									}
								}
							}
						}
					}
				}
				JOINT RightShoulder
				{
					OFFSET 0.000000 0.000000 0.000000
					CHANNELS 3 Zrotation Yrotation Xrotation
					JOINT RightArm
					{
						OFFSET -3.136600 1.374050 -0.404650
						CHANNELS 3 Zrotation Yrotation Xrotation
						JOINT RightForeArm
						{
							OFFSET -5.241900 -0.000000 -0.000000
							CHANNELS 3 Zrotation Yrotation Xrotation
							JOINT RightHand
							{
								OFFSET -3.444170 -0.000000 -0.000000
								CHANNELS 3 Zrotation Yrotation Xrotation
								JOINT RightFingerBase
								{
									OFFSET 0.000000 0.000000 0.000000
									CHANNELS 3 Zrotation Yrotation Xrotation
									JOINT RightHandIndex1
									{
										OFFSET -0.622530 -0.000000 -0.000000
										CHANNELS 3 Zrotation Yrotation Xrotation
										End Site
										{
											OFFSET 0.000000 0.000000 0.000000
										}
									}
								}
								JOINT RThumb
								{
									OFFSET 0.000000 0.000000 0.000000
									CHANNELS 3 Zrotation Yrotation Xrotation
									End Site
									{
										OFFSET 0.000000 0.000000 0.000000
									}
								}
							}
						}
					}
				}
			}
		}
	}
}
MOTION
Frames: 9
Frame Time: 0.008333
7.258513 3.395284 0.908787 -62.633402 19.486640 -72.842650 -0.604224 -3.827616 -5.336002 -21.288427 27.264655 -85.629352 33.930672 11.217780 141.328099 2.535579 -9.011291 26.194370 0.423900 -4.178700 -11.580100 -0.041961 3.696068 -4.060216 -1.158909 0.678973 -41.144990 -23.123505 -20.245084 98.723885 0.281117 -4.843582 -13.203585 -0.000400 -0.127700 0.350800 2.109226 -2.714324 32.040921 2.494263 -1.347582 -0.837266 5.575998 -0.980362 2.505342 -7.688524 -5.088841 -3.822282 9.277729 -7.990841 6.877808 4.743000 -3.846200 -0.207700 -2.667737 -8.261547 3.938325 -15.949381 -12.629944 37.668363 30.954926 -38.454946 -15.318189 0.959889 -0.666708 -5.580166 25.487342 -26.606075 -11.336700 -7.125000 0.000000 0.000000 -3.135600 1.834200 3.038200 4.876886 7.052292 4.333291 41.394746 -19.898602 -14.769778 -3.426326 8.972167 -1.278680 1.520083 2.914571 24.077440 1.217637 -18.437268 -0.377600 7.125000 0.000000 0.000000 28.954400 -49.331800 -3.347000 
7.362130 3.344205 0.848013 -62.958418 18.261278 -74.152021 -0.598715 -3.807142 -5.263467 -20.250929 28.961391 -83.253365 33.863761 11.345944 140.845582 2.451725 -9.967131 25.392568 0.722100 -5.430100 -15.139400 -0.082588 3.780594 -4.201343 -0.185189 0.202765 -43.782869 -22.074026 -20.355795 95.627629 0.434346 -5.367368 -12.962417 -0.001500 0.248400 -0.682400 1.962161 -3.051905 32.136088 2.575119 -1.802275 -0.781155 6.066689 -1.268542 2.715819 -7.624399 -4.902335 -3.881858 9.384476 -7.778370 7.441986 4.783600 -3.749000 0.028100 -2.661408 -8.322488 3.966617 -15.452518 -12.823154 38.020328 29.837813 -37.684704 -14.510993 0.940231 -0.626512 -6.176470 24.699456 -26.829947 -11.046500 -7.125000 0.000000 0.000000 -3.628600 1.721300 3.525100 4.812561 7.075893 4.262993 42.453585 -20.257013 -13.391753 -3.926388 9.746797 -1.399439 1.391283 2.915628 22.149215 1.107100 -18.174506 -0.335200 7.125000 0.000000 0.000000 28.687500 -49.066700 -3.111000 
7.463767 3.283849 0.789116 -63.188299 17.058783 -75.503928 -0.573309 -3.737006 -5.140797 -19.131632 31.542412 -80.672087 33.868206 11.404213 140.639773 2.339349 -11.674988 24.251381 1.024100 -6.437600 -18.059500 -0.139982 3.849070 -4.360924 0.662790 -0.239847 -46.253919 -20.978276 -20.415034 92.410452 0.569682 -5.764373 -12.557409 -0.004500 0.434300 -1.193400 1.795413 -3.404406 32.344537 2.651581 -2.274761 -0.723116 6.521993 -1.568898 2.887661 -7.561637 -4.697015 -3.909371 9.526524 -7.546729 7.942637 4.842800 -3.640900 0.228700 -2.667028 -8.381750 3.997319 -15.015743 -12.932736 38.439424 28.746150 -36.921066 -13.753530 0.934463 -0.594352 -6.657939 23.636027 -27.141545 -10.635300 -7.125000 0.000000 0.000000 -4.304100 1.578100 4.195900 4.747610 7.089111 4.193343 43.312807 -20.653166 -11.818838 -4.507765 10.642580 -1.559511 1.314800 2.938906 19.483392 0.527108 -18.198190 -0.097900 7.125000 0.000000 0.000000 28.111500 -49.168100 -3.113500 
7.566237 3.216925 0.728968 -63.310286 15.955694 -76.817945 -0.518458 -3.589316 -4.928314 -17.870563 35.382477 -77.887027 33.962252 11.411424 140.664585 2.169849 -14.369914 22.722500 1.320500 -7.277900 -20.541400 -0.222003 3.893825 -4.550160 1.275849 -0.590036 -48.585434 -19.843249 -20.422231 89.083815 0.666400 -5.992066 -12.092924 -0.007200 0.548300 -1.506600 1.547481 -3.754835 32.548309 2.716441 -2.766444 -0.667466 6.930185 -1.881820 3.047037 -7.393880 -4.455556 -3.889421 9.918565 -7.309578 8.354518 4.489000 -3.525300 0.340900 -2.687193 -8.441885 4.030854 -14.650491 -12.948812 38.893990 27.697246 -36.179114 -13.056699 0.939777 -0.567703 -7.111543 22.346834 -27.533583 -10.123700 -7.125000 0.000000 0.000000 -5.126500 1.398700 5.020200 4.680629 7.081125 4.125355 43.979243 -21.060688 -10.209830 -5.152214 11.619376 -1.755583 1.301512 2.976333 16.419575 -0.533000 -18.466927 0.347500 7.125000 0.000000 0.000000 27.179200 -49.595300 -3.298100 
7.670167 3.145415 0.661315 -63.342145 15.015675 -78.117186 -0.460416 -3.383983 -4.599865 -16.504348 40.062532 -74.821122 34.095220 11.482048 140.542380 1.873733 -17.909999 20.214932 1.968300 -8.799700 -25.170700 -0.316084 3.928560 -4.778014 1.527404 -0.815674 -50.683495 -18.664711 -20.369749 85.626946 0.693029 -5.959935 -11.650363 -0.002900 0.344800 -0.947300 1.144463 -4.103339 32.774403 2.768688 -3.287034 -0.614111 7.330181 -2.220520 3.195455 -7.237518 -4.257034 -3.843572 9.983184 -7.075440 8.744689 4.479700 -3.411400 0.443200 -2.718474 -8.477742 4.057594 -14.410098 -12.891279 39.311173 26.676130 -35.445449 -12.401563 0.949519 -0.538206 -7.564414 20.962631 -27.932943 -9.555100 -7.125000 0.000000 0.000000 -6.004100 1.222700 5.907400 4.625135 7.078303 4.070881 44.414919 -21.437528 -8.712204 -5.835885 12.631162 -1.980853 1.333267 3.015606 13.358362 -1.913930 -18.795206 0.944000 7.125000 0.000000 0.000000 25.936600 -50.140000 -3.493100 
7.773680 3.070881 0.580318 -63.265150 14.263635 -79.425623 -0.427863 -3.141901 -4.188516 -14.851239 45.003300 -71.458349 34.237729 11.660623 140.135411 1.567862 -21.179548 17.562238 2.533800 -9.899100 -28.650500 -0.405665 3.965664 -5.036508 1.324173 -0.825064 -52.480078 -17.442008 -20.252433 82.025577 0.679874 -5.783611 -11.203603 0.000000 -0.028600 0.078500 0.511884 -4.420129 33.068055 2.809365 -3.809375 -0.565605 7.775074 -2.576459 3.323427 -7.127847 -4.111038 -3.796934 9.730983 -6.854285 9.116103 4.819400 -3.308000 0.586400 -2.764678 -8.489938 4.073399 -14.336810 -12.771235 39.622939 25.667986 -34.705050 -11.772982 0.959952 -0.500273 -7.961387 19.606513 -28.264391 -8.972000 -7.125000 0.000000 0.000000 -6.854300 1.096500 6.770800 4.586531 7.080765 4.033302 44.590426 -21.762159 -7.425401 -6.530998 13.631697 -2.224566 1.378925 3.042972 10.692185 -3.338666 -18.989062 1.564600 7.125000 0.000000 0.000000 24.557600 -50.562600 -3.552400 
7.875316 2.995931 0.484207 -63.144473 13.673391 -80.777740 -0.443447 -2.929424 -3.794571 -13.003927 49.034047 -68.011539 34.310993 11.929576 139.416166 1.352955 -23.593075 14.956918 3.108300 -10.868400 -31.837400 -0.472391 4.023290 -5.298703 0.657178 -0.588803 -53.918764 -16.173475 -20.055060 78.264961 0.659363 -5.596208 -10.785377 -0.007100 -0.544700 1.496700 -0.356388 -4.696095 33.428672 2.852889 -4.332682 -0.524119 8.319385 -2.945145 3.441055 -6.960501 -3.965684 -3.702458 9.694170 -6.676610 9.431643 4.725900 -3.220900 0.645700 -2.833496 -8.493572 4.082007 -14.433879 -12.579553 39.806758 24.669582 -33.955636 -11.167660 0.967907 -0.453653 -8.219815 18.394982 -28.465603 -8.421600 -7.125000 0.000000 0.000000 -7.602100 1.060100 7.527100 4.570269 7.065955 4.011703 44.486348 -22.009200 -6.412423 -7.203390 14.571186 -2.471944 1.410907 3.048017 8.731211 -4.523506 -18.943023 2.063300 7.125000 0.000000 0.000000 23.291900 -50.705600 -3.435700 
7.971324 2.922336 0.374335 -63.010362 13.207921 -82.181484 -0.492405 -2.779850 -3.478787 -11.349726 51.496645 -64.787353 34.269084 12.260281 138.419316 1.291629 -24.870954 12.663114 3.678100 -11.719300 -34.745900 -0.514990 4.113511 -5.551128 -0.499048 -0.039409 -54.998317 -14.877631 -19.771506 74.383755 0.681113 -5.588614 -10.428892 -0.023200 -0.984300 2.705700 -1.492045 -4.918583 33.829827 2.916411 -4.848292 -0.480991 9.052966 -3.334652 3.614257 -6.872750 -3.849700 -3.591782 9.628158 -6.540036 9.725701 4.615900 -3.153800 0.684800 -2.927223 -8.478037 4.079640 -14.707991 -12.340029 39.825044 23.652766 -33.177621 -10.564569 0.969570 -0.396300 -8.268331 17.417318 -28.499470 -7.947800 -7.125000 0.000000 0.000000 -8.193200 1.133300 8.113400 4.594812 7.037568 4.011564 44.043715 -22.119692 -5.654894 -7.829693 15.423161 -2.712742 1.411826 3.031332 7.576740 -5.290440 -18.656023 2.348000 7.125000 0.000000 0.000000 22.347700 -50.536600 -3.187400 
8.059617 2.852076 0.256020 -62.914691 12.797363 -83.627648 -0.548751 -2.714080 -3.273628 -10.367331 51.896127 -62.320507 34.090416 12.620004 137.201796 1.377234 -24.860189 11.028273 4.233600 -12.465000 -37.397400 -0.535810 4.238027 -5.781653 -2.102762 0.837657 -55.716254 -13.562212 -19.399788 70.392002 0.777940 -5.868720 -10.121134 -0.051200 -1.459600 4.014200 -2.825470 -5.104456 34.253521 3.000247 -5.377981 -0.441590 9.943047 -3.752785 3.844440 -6.866663 -3.757563 -3.484718 9.542450 -6.439386 10.046032 4.499900 -3.104300 0.730800 -3.046802 -8.447759 4.067877 -15.099304 -12.059953 39.689015 22.569462 -32.326339 -9.932590 0.961514 -0.325114 -8.064816 16.704782 -28.374713 -7.576500 -7.125000 0.000000 0.000000 -8.611200 1.298700 8.511200 4.657438 7.000795 4.028843 43.318736 -22.063970 -5.089427 -8.403304 16.186190 -2.943651 1.378836 2.994581 7.201545 -5.605065 -18.172399 2.407000 7.125000 0.000000 0.000000 21.797400 -50.093400 -2.856200 
